<svg width="16" height="16" viewBox="0 0 16 16" fill="none" xmlns="http://www.w3.org/2000/svg">
<path d="M2.13093 3.83625C2.06587 3.76465 2.02298 3.67571 2.00745 3.58022C1.99193 3.48473 2.00445 3.38678 2.04348 3.29826C2.08251 3.20974 2.14639 3.13445 2.22737 3.0815C2.30834 3.02856 2.40294 3.00025 2.49968 3H13.4997C13.5965 3.00001 13.6913 3.02815 13.7725 3.08099C13.8536 3.13384 13.9177 3.20912 13.9569 3.29769C13.9961 3.38626 14.0087 3.48431 13.9932 3.57991C13.9777 3.67552 13.9348 3.76457 13.8697 3.83625L9.49968 8.5V12.1656C9.49973 12.248 9.47945 12.329 9.44064 12.4017C9.40182 12.4743 9.34567 12.5362 9.27718 12.5819L7.27718 13.915C7.20195 13.9652 7.11452 13.994 7.02419 13.9985C6.93386 14.0029 6.84402 13.9828 6.76424 13.9402C6.68445 13.8976 6.61772 13.8342 6.57113 13.7566C6.52454 13.6791 6.49985 13.5904 6.49968 13.5V8.5L2.13093 3.83625Z" stroke="#7A869A" stroke-linecap="round" stroke-linejoin="round"/>
</svg>
